<?xml version="1.0" encoding="utf-8"?>
<!-- Generator: Adobe Illustrator 27.6.1, SVG Export Plug-In . SVG Version: 6.00 Build 0)  -->
<svg version="1.1" id="Layer_1" xmlns="http://www.w3.org/2000/svg" xmlns:xlink="http://www.w3.org/1999/xlink" x="0px" y="0px"
	 viewBox="0 0 1000 1000" style="enable-background:new 0 0 1000 1000;" xml:space="preserve">
<style type="text/css">
	.st0{fill:url(#SVGID_1_);}
	.st1{fill:url(#SVGID_00000129184537315595463070000015961652234101697455_);}
	.st2{fill:url(#SVGID_00000036217265780381299450000013597491019805920702_);}
</style>
<g>
	<linearGradient id="SVGID_1_" gradientUnits="userSpaceOnUse" x1="602.2395" y1="104.6649" x2="602.2395" y2="738.335">
		<stop  offset="0" style="stop-color:#7E7CFA"/>
		<stop  offset="0.6718" style="stop-color:#6624FF"/>
		<stop  offset="1" style="stop-color:#3F03A3"/>
	</linearGradient>
	<path class="st0" d="M875.3,370.2v103.6c-6.5,59.9-30.6,114.6-67,158.6C753.2,698.9,670,741.3,576.8,741.3
		c-21.9,0-43.2-2.3-63.7-6.8c-4.1-0.9-8.1-1.8-12.1-2.9c59-30.7,105.1-62.2,142.5-132.7c0,0,0.8-1.5,1.2-2.2
		c59.7-105.4,56.3-210.2,55.9-221.5c0-0.5,0-0.8,0-0.9c-0.1,0-4.1-13.6-6.4-20.2C663.2,264.5,590.9,194.1,500,165.7
		c-8.4-2.7-17.1-4.9-25.9-6.8c-6.3-1.4-12.7-2.6-19.1-3.5c-14.6-2.2-29.4-3.3-44.6-3.3c-28.1,0-55.4,3.9-81.2,11.1l93.9-54.2
		c47.6-27.5,106.3-27.5,153.9,0l68.8,39.7l149.5,86.3l3,1.7C845.9,264.4,875.3,315.2,875.3,370.2z"/>
	
		<linearGradient id="SVGID_00000138534438702497106070000008521726451398898862_" gradientUnits="userSpaceOnUse" x1="112.5878" y1="685.0887" x2="605.2744" y2="220.926">
		<stop  offset="0" style="stop-color:#7E7CFA"/>
		<stop  offset="0.6273" style="stop-color:#6624FF"/>
		<stop  offset="1" style="stop-color:#3F03A3"/>
	</linearGradient>
	<path style="fill:url(#SVGID_00000138534438702497106070000008521726451398898862_);" d="M700.6,374.4
		c-7.5-5.4-15.6-10.7-23.5-15.5c-15.1-9-31-17-47.5-23.7c-39.9-16.4-83.7-25.6-129.5-26.2c-45.9,0.6-89.6,9.8-129.5,26.2
		c-16.5,6.7-32.4,14.7-47.5,23.7c-1.9,1.1-3.7,2.3-5.6,3.4c0,0,0,0-0.1,0.1c-6,3.7-11.8,7.7-17.6,11.8c-0.1,0-0.2,0.1-0.3,0.2
		c-7,6.9-13.6,14.2-19.9,21.8c-34.9,42.2-58.6,97.1-66.2,155.2c-1.8,13.4-2.7,27-2.7,40.6c0,34.4,5.8,67.4,16.4,98.2
		c21.2,61.3,61.7,113.6,114.2,149.6L201.7,759c-47.6-27.5-77-78.3-77-133.3V370.2c0-3.9,0.1-7.8,0.5-11.7
		c3.8-50.1,31.9-95.6,75.7-121.1c0.3-0.2,0.5-0.4,0.8-0.5l127.5-73.6c25.8-7.3,53-11.1,81.2-11.1c15.2,0,30,1.1,44.6,3.3
		c6.4,0.9,12.8,2.1,19.1,3.5c8.8,1.9,17.4,4.1,25.9,6.8c90.9,28.4,163.2,98.8,194.1,188.5C696.5,360.7,698.8,367.6,700.6,374.4z"/>
	
		<linearGradient id="SVGID_00000000936875229987433250000004521523401594809507_" gradientUnits="userSpaceOnUse" x1="188.5409" y1="622.5997" x2="868.92" y2="682.5073">
		<stop  offset="0" style="stop-color:#3F03A3"/>
		<stop  offset="0.3282" style="stop-color:#6624FF"/>
		<stop  offset="1" style="stop-color:#7E7CFA"/>
	</linearGradient>
	<path style="fill:url(#SVGID_00000000936875229987433250000004521523401594809507_);" d="M875.3,473.8v152
		c0,55-29.3,105.8-77,133.3l-71.5,41.3l-143.8,83l-6.1,3.5c-23.8,13.7-50.4,20.6-77,20.6c-26.6,0-53.1-6.8-76.9-20.6l-41.6-24
		l-40.3-23.3c-52.5-36-93-88.3-114.2-149.6c-10.7-30.8-16.4-63.8-16.4-98.2c0-13.6,0.9-27.2,2.7-40.6c7.6-58.1,31.3-113,66.2-155.2
		c6.3-7.6,12.9-14.8,19.9-21.8c0,0.4-0.1,1.9-0.2,4.5c-0.5,20.1,0.3,103.3,42.8,192.3c0.6,1.4,1.3,2.8,2.1,4.3
		c1.1,2.3,2.3,4.7,3.5,7.1c2.4,4.7,8.9,16.4,8.9,16.4c36.9,69.5,80.2,100,138,130.4c0,0,4.8,1.8,6.4,2.3c3,0.9,12.1,2.9,12.1,2.9
		c20.5,4.5,41.9,6.8,63.7,6.8c93.1,0,176.3-42.4,231.4-108.9C844.7,588.3,868.8,533.7,875.3,473.8z"/>
</g>
</svg>
